<svg xmlns="http://www.w3.org/2000/svg" viewBox="0 0 500 500"><path fill="#007bff" d="M460 0H40C17.9 0 0 17.9 0 40v420c0 22.1 17.9 40 40 40h420c22.1 0 40-17.9 40-40V40c0-22.1-17.9-40-40-40z"/><path fill="none" d="M68.8 132.3h189.6v244H68.8z"/><g transform="matrix(.93772 0 0 .93772 14.207 15.66)"><path fill="#fff" d="M45.1 47.2h232v52.1H103.7v124.8h167.6v52.4H103.7v127.1h179v52.1H45.1z" class="st2"/></g><g transform="translate(42.984 38.844) scale(.88627)"><path fill="#fff" d="M382.1 360.8l-28.3-15.6c-17.8-9.8-30.4-19.4-37.9-28.9s-11.3-20.4-11.3-32.8c0-18.5 7.1-33.6 21.3-45.1 14.2-11.6 32.7-17.3 55.4-17.3 21.7 0 41.6 5.5 59.8 16.5v38.2c-18.7-16.3-38.9-24.5-60.5-24.5-12.2 0-22.2 2.5-30 7.6-7.8 5.1-11.7 11.6-11.7 19.5 0 7 2.9 13.6 8.6 19.8 5.8 6.2 15 12.6 27.8 19.4l28.4 15.2c31.7 17.1 47.6 39 47.6 65.5 0 18.9-7 34.2-20.9 46-14 11.8-32.1 17.7-54.5 17.7-25.7 0-49.1-7.1-70.2-21.4v-42.8c20.1 23 43.4 34.6 69.8 34.6 11.7 0 21.4-2.9 29.1-8.8 7.8-5.9 11.6-13.2 11.6-22.1.2-14.3-11.3-27.8-34.1-40.7z" /></g></svg>
